HIERARCHY
ROOT mixamorig:Hips
{
	OFFSET 0.000000 77.714516 0.000000
	CHANNELS 6 Xposition Yposition Zposition Xrotation Yrotation Zrotation
	JOINT mixamorig:Spine
	{
		OFFSET 0.000000 14.685699 -1.734700
		CHANNELS 3 Xrotation Yrotation Zrotation
		JOINT mixamorig:Spine1
		{
			OFFSET 0.000000 17.133286 -2.023825
			CHANNELS 3 Xrotation Yrotation Zrotation
			JOINT mixamorig:Spine2
			{
				OFFSET 0.000000 19.580956 -2.312950
				CHANNELS 3 Xrotation Yrotation Zrotation
				JOINT mixamorig:Neck
				{
					OFFSET 0.000000 22.028564 -2.602067
					CHANNELS 3 Xrotation Yrotation Zrotation
					JOINT mixamorig:Head
					{
						OFFSET 0.000000 7.772293 1.167700
						CHANNELS 3 Xrotation Yrotation Zrotation
						JOINT mixamorig:HeadTop_End
						{
							OFFSET 0.000000 26.518204 3.983900
							CHANNELS 3 Xrotation Yrotation Zrotation
							End Site
							{
								OFFSET 0.000000 26.815781 0.000000
							}
						}
					}
				}
				JOINT mixamorig:LeftShoulder
				{
					OFFSET 11.646600 18.513336 -2.583780
					CHANNELS 3 Xrotation Yrotation Zrotation
					JOINT mixamorig:LeftArm
					{
						OFFSET 23.544209 -6.614426 0.036475
						CHANNELS 3 Xrotation Yrotation Zrotation
						JOINT mixamorig:LeftForeArm
						{
							OFFSET 22.756695 0.000000 -0.000001
							CHANNELS 3 Xrotation Yrotation Zrotation
							JOINT mixamorig:LeftHand
							{
								OFFSET 32.238304 0.000000 -0.000001
								CHANNELS 3 Xrotation Yrotation Zrotation
								JOINT mixamorig:LeftHandThumb1
								{
									OFFSET 4.391930 -2.771759 4.066533
									CHANNELS 3 Xrotation Yrotation Zrotation
									JOINT mixamorig:LeftHandThumb2
									{
										OFFSET 4.087418 -2.359879 2.359871
										CHANNELS 3 Xrotation Yrotation Zrotation
										JOINT mixamorig:LeftHandThumb3
										{
											OFFSET 4.044945 -2.335342 2.335349
											CHANNELS 3 Xrotation Yrotation Zrotation
											JOINT mixamorig:LeftHandThumb4
											{
												OFFSET 3.242561 -1.872101 1.872095
												CHANNELS 3 Xrotation Yrotation Zrotation
												End Site
												{
													OFFSET 2.876892 -1.863678 2.402885
												}
											}
										}
									}
								}
								JOINT mixamorig:LeftHandIndex1
								{
									OFFSET 13.080666 -0.495590 3.860911
									CHANNELS 3 Xrotation Yrotation Zrotation
									JOINT mixamorig:LeftHandIndex2
									{
										OFFSET 4.467804 0.000000 0.000000
										CHANNELS 3 Xrotation Yrotation Zrotation
										JOINT mixamorig:LeftHandIndex3
										{
											OFFSET 4.434097 0.000000 0.000000
											CHANNELS 3 Xrotation Yrotation Zrotation
											JOINT mixamorig:LeftHandIndex4
											{
												OFFSET 3.589699 0.000000 0.000000
												CHANNELS 3 Xrotation Yrotation Zrotation
												End Site
												{
													OFFSET 3.589706 0.000000 0.000200
												}
											}
										}
									}
								}
								JOINT mixamorig:LeftHandMiddle1
								{
									OFFSET 12.178093 0.000000 0.000000
									CHANNELS 3 Xrotation Yrotation Zrotation
									JOINT mixamorig:LeftHandMiddle2
									{
										OFFSET 5.491508 0.000000 0.000000
										CHANNELS 3 Xrotation Yrotation Zrotation
										JOINT mixamorig:LeftHandMiddle3
										{
											OFFSET 5.202805 0.000000 0.000000
											CHANNELS 3 Xrotation Yrotation Zrotation
											JOINT mixamorig:LeftHandMiddle4
											{
												OFFSET 4.456505 0.000000 0.000000
												CHANNELS 3 Xrotation Yrotation Zrotation
												End Site
												{
													OFFSET 4.456505 -0.000046 0.006499
												}
											}
										}
									}
								}
								JOINT mixamorig:LeftHandRing1
								{
									OFFSET 11.850945 -0.053970 -3.835439
									CHANNELS 3 Xrotation Yrotation Zrotation
									JOINT mixamorig:LeftHandRing2
									{
										OFFSET 4.691414 0.000000 0.000000
										CHANNELS 3 Xrotation Yrotation Zrotation
										JOINT mixamorig:LeftHandRing3
										{
											OFFSET 4.518303 0.000000 0.000000
											CHANNELS 3 Xrotation Yrotation Zrotation
											JOINT mixamorig:LeftHandRing4
											{
												OFFSET 3.568130 0.000000 0.000000
												CHANNELS 3 Xrotation Yrotation Zrotation
												End Site
												{
													OFFSET 3.568100 -0.000168 0.014599
												}
											}
										}
									}
								}
								JOINT mixamorig:LeftHandPinky1
								{
									OFFSET 10.491814 -0.458572 -7.033705
									CHANNELS 3 Xrotation Yrotation Zrotation
									JOINT mixamorig:LeftHandPinky2
									{
										OFFSET 4.452301 0.000000 0.000000
										CHANNELS 3 Xrotation Yrotation Zrotation
										JOINT mixamorig:LeftHandPinky3
										{
											OFFSET 3.536598 0.000000 0.000000
											CHANNELS 3 Xrotation Yrotation Zrotation
											JOINT mixamorig:LeftHandPinky4
											{
												OFFSET 2.823502 0.000000 0.000000
												CHANNELS 3 Xrotation Yrotation Zrotation
												End Site
												{
													OFFSET 2.823502 0.000000 0.000600
												}
											}
										}
									}
								}
							}
						}
					}
				}
				JOINT mixamorig:RightShoulder
				{
					OFFSET -11.646600 18.513351 -2.620334
					CHANNELS 3 Xrotation Yrotation Zrotation
					JOINT mixamorig:RightArm
					{
						OFFSET -23.544205 -6.614441 -0.036501
						CHANNELS 3 Xrotation Yrotation Zrotation
						JOINT mixamorig:RightForeArm
						{
							OFFSET -22.759399 0.000000 0.000001
							CHANNELS 3 Xrotation Yrotation Zrotation
							JOINT mixamorig:RightHand
							{
								OFFSET -32.238106 0.000000 0.000001
								CHANNELS 3 Xrotation Yrotation Zrotation
								JOINT mixamorig:RightHandThumb1
								{
									OFFSET -4.492897 -2.767944 4.026622
									CHANNELS 3 Xrotation Yrotation Zrotation
									JOINT mixamorig:RightHandThumb2
									{
										OFFSET -4.113335 -2.374832 2.374833
										CHANNELS 3 Xrotation Yrotation Zrotation
										JOINT mixamorig:RightHandThumb3
										{
											OFFSET -4.066299 -2.347672 2.347678
											CHANNELS 3 Xrotation Yrotation Zrotation
											JOINT mixamorig:RightHandThumb4
											{
												OFFSET -3.138756 -1.812164 1.812160
												CHANNELS 3 Xrotation Yrotation Zrotation
												End Site
												{
													OFFSET -2.613274 -1.789185 2.527684
												}
											}
										}
									}
								}
								JOINT mixamorig:RightHandIndex1
								{
									OFFSET -12.930191 -0.141510 3.700550
									CHANNELS 3 Xrotation Yrotation Zrotation
									JOINT mixamorig:RightHandIndex2
									{
										OFFSET -4.764015 0.000000 0.000000
										CHANNELS 3 Xrotation Yrotation Zrotation
										JOINT mixamorig:RightHandIndex3
										{
											OFFSET -4.419807 0.000000 0.000000
											CHANNELS 3 Xrotation Yrotation Zrotation
											JOINT mixamorig:RightHandIndex4
											{
												OFFSET -3.701851 0.000000 0.000000
												CHANNELS 3 Xrotation Yrotation Zrotation
												End Site
												{
													OFFSET -3.701797 0.000153 -0.018699
												}
											}
										}
									}
								}
								JOINT mixamorig:RightHandMiddle1
								{
									OFFSET -12.168388 0.000000 0.000001
									CHANNELS 3 Xrotation Yrotation Zrotation
									JOINT mixamorig:RightHandMiddle2
									{
										OFFSET -5.385834 0.000000 0.000000
										CHANNELS 3 Xrotation Yrotation Zrotation
										JOINT mixamorig:RightHandMiddle3
										{
											OFFSET -5.321609 0.000000 0.000000
											CHANNELS 3 Xrotation Yrotation Zrotation
											JOINT mixamorig:RightHandMiddle4
											{
												OFFSET -4.501015 0.000000 0.000000
												CHANNELS 3 Xrotation Yrotation Zrotation
												End Site
												{
													OFFSET -4.500992 -0.000168 0.011299
												}
											}
										}
									}
								}
								JOINT mixamorig:RightHandRing1
								{
									OFFSET -11.815239 0.302551 -3.905540
									CHANNELS 3 Xrotation Yrotation Zrotation
									JOINT mixamorig:RightHandRing2
									{
										OFFSET -4.583313 0.000000 0.000000
										CHANNELS 3 Xrotation Yrotation Zrotation
										JOINT mixamorig:RightHandRing3
										{
											OFFSET -4.612907 0.000000 0.000000
											CHANNELS 3 Xrotation Yrotation Zrotation
											JOINT mixamorig:RightHandRing4
											{
												OFFSET -3.358940 0.000000 0.000000
												CHANNELS 3 Xrotation Yrotation Zrotation
												End Site
												{
													OFFSET -3.358910 -0.000198 0.016799
												}
											}
										}
									}
								}
								JOINT mixamorig:RightHandPinky1
								{
									OFFSET -10.511444 -0.263382 -6.996516
									CHANNELS 3 Xrotation Yrotation Zrotation
									JOINT mixamorig:RightHandPinky2
									{
										OFFSET -4.477509 0.000000 0.000000
										CHANNELS 3 Xrotation Yrotation Zrotation
										JOINT mixamorig:RightHandPinky3
										{
											OFFSET -3.497902 0.000000 0.000000
											CHANNELS 3 Xrotation Yrotation Zrotation
											JOINT mixamorig:RightHandPinky4
											{
												OFFSET -2.797302 0.000000 0.000000
												CHANNELS 3 Xrotation Yrotation Zrotation
												End Site
												{
													OFFSET -2.797302 -0.000031 0.002200
												}
											}
										}
									}
								}
							}
						}
					}
				}
			}
		}
	}
	JOINT mixamorig:LeftUpLeg
	{
		OFFSET 13.580900 -8.149200 -1.796100
		CHANNELS 3 Xrotation Yrotation Zrotation
		JOINT mixamorig:LeftLeg
		{
			OFFSET 1.779603 -35.946629 -2.676069
			CHANNELS 3 Xrotation Yrotation Zrotation
			JOINT mixamorig:LeftFoot
			{
				OFFSET -1.779600 -26.652353 -2.057156
				CHANNELS 3 Xrotation Yrotation Zrotation
				JOINT mixamorig:LeftToeBase
				{
					OFFSET -1.192457 -6.581663 13.403625
					CHANNELS 3 Xrotation Yrotation Zrotation
					JOINT mixamorig:LeftToe_End
					{
						OFFSET -0.351332 -0.163919 5.937958
						CHANNELS 3 Xrotation Yrotation Zrotation
						End Site
						{
							OFFSET -0.351332 -0.163919 5.937958
						}
					}
				}
			}
		}
	}
	JOINT mixamorig:RightUpLeg
	{
		OFFSET -13.580900 -8.149200 -2.255300
		CHANNELS 3 Xrotation Yrotation Zrotation
		JOINT mixamorig:RightLeg
		{
			OFFSET -1.779582 -35.946686 -2.316831
			CHANNELS 3 Xrotation Yrotation Zrotation
			JOINT mixamorig:RightFoot
			{
				OFFSET 1.779588 -26.652205 -2.090130
				CHANNELS 3 Xrotation Yrotation Zrotation
				JOINT mixamorig:RightToeBase
				{
					OFFSET 1.192391 -6.582412 13.372187
					CHANNELS 3 Xrotation Yrotation Zrotation
					JOINT mixamorig:RightToe_End
					{
						OFFSET 0.351304 -0.164246 5.913598
						CHANNELS 3 Xrotation Yrotation Zrotation
						End Site
						{
							OFFSET 0.351304 -0.164246 5.913598
						}
					}
				}
			}
		}
	}
}
MOTION
Frames: 4
Frame Time: 0.016667
74.347565 60.043076 -4.173988 55.131013 63.497263 -42.677634 7.713811 0.171230 1.398855 15.434670 -0.184918 2.615764 15.434651 -0.184925 2.615760 -10.930307 -0.793151 -2.087369 17.264215 -7.204960 -3.491280 0.000001 -0.000000 0.000002 0.094091 -10.174263 -18.035104 -66.357958 -9.393833 -13.491389 -1.447897 -99.203518 -1.375475 -34.737348 -3.106090 0.013749 -13.322414 -11.156064 -5.688886 5.535835 13.225662 2.234659 -0.000008 -0.000002 -0.000013 0.000001 0.000003 0.000001 4.051952 15.579588 -13.578672 -4.095838 12.713239 -76.553464 0.000003 -0.000003 0.000009 0.000001 0.000002 0.000003 3.726907 8.013474 -18.319670 -10.686583 7.974966 -68.501729 -0.000004 -0.000010 0.000008 -0.000000 0.000002 0.000001 1.321150 3.358429 -21.695379 -13.102334 6.341364 -69.933364 -0.000005 -0.000010 0.000003 0.000001 0.000004 -0.000002 -2.638072 0.790693 -18.032055 -4.233789 -9.043475 -68.305464 -0.000002 0.000003 -0.000005 -0.000002 0.000001 0.000001 -1.227647 20.600964 21.549197 -21.765011 67.966680 16.829419 -0.656304 105.488454 0.775428 18.153202 20.102946 -34.153224 -13.266622 -6.430528 -7.934198 12.525976 -26.571482 -1.146454 0.000006 -0.000005 0.000002 0.000001 0.000002 -0.000000 2.897038 -20.355793 57.558154 1.247113 -2.368009 62.391763 -0.000001 -0.000000 0.000003 -0.000003 0.000000 -0.000000 -0.389531 -9.857835 61.656985 -1.569757 2.441949 55.999037 0.000009 0.000005 0.000004 -0.000004 0.000001 0.000003 -2.117315 -3.079302 65.119413 -0.879088 3.669062 30.991331 -0.000002 -0.000007 -0.000003 -0.000001 0.000000 0.000000 -3.814468 5.496379 58.243482 -1.032641 7.313789 26.432760 -0.000001 -0.000002 0.000002 0.000000 -0.000002 -0.000000 -43.319700 16.437631 24.823780 65.623699 -4.517540 -2.548246 -37.271263 5.637620 -19.623323 -4.516074 -0.034134 0.072566 0.000000 -0.000000 -0.000000 -83.216662 5.977959 -27.456693 51.237337 2.559480 2.197623 12.713529 -10.050086 7.893940 -0.264480 -0.187959 0.199197 -0.000000 0.000005 -0.000001 
74.102921 60.154312 -4.647158 54.252493 63.571378 -41.759032 7.706072 0.165100 1.398629 15.419104 -0.183957 2.618920 15.419084 -0.183976 2.618926 -11.018078 -0.702035 -2.102875 17.214401 -6.857886 -3.955836 -0.000000 -0.000001 0.000000 0.070561 -10.189658 -18.413572 -66.345650 -10.237516 -14.358238 -1.517887 -98.660532 -1.447583 -33.983289 -2.800097 0.350362 -13.322431 -11.156060 -5.688889 5.535825 13.225663 2.234676 -0.000006 -0.000003 -0.000009 -0.000000 -0.000002 -0.000000 4.051948 15.579593 -13.578668 -4.095853 12.713221 -76.553430 0.000005 -0.000005 0.000007 -0.000001 0.000003 0.000001 3.726883 8.013469 -18.319653 -10.686578 7.974965 -68.501709 -0.000006 -0.000004 0.000008 0.000001 0.000000 -0.000001 1.321158 3.358451 -21.695370 -13.102338 6.341364 -69.933358 -0.000006 -0.000008 0.000004 -0.000000 0.000002 0.000001 -2.638068 0.790697 -18.032031 -4.233782 -9.043470 -68.305464 0.000004 0.000005 -0.000002 0.000003 -0.000002 -0.000001 -1.224350 20.499588 21.599360 -22.577433 67.449928 16.765078 -0.693466 104.976920 0.808845 16.351413 21.168684 -33.332146 -13.266631 -6.430520 -7.934207 12.525981 -26.571470 -1.146462 0.000007 -0.000003 0.000002 -0.000001 0.000002 0.000001 2.897030 -20.355810 57.558161 1.247128 -2.368009 62.391784 0.000005 0.000002 0.000006 0.000000 0.000001 0.000003 -0.389554 -9.857841 61.656985 -1.569772 2.441935 55.999037 0.000011 0.000003 0.000004 -0.000001 0.000000 0.000002 -2.117326 -3.079312 65.119427 -0.879076 3.669062 30.991324 -0.000001 -0.000005 -0.000003 0.000002 -0.000000 -0.000001 -3.814481 5.496374 58.243489 -1.032647 7.313798 26.432769 -0.000001 0.000001 -0.000000 -0.000001 -0.000002 0.000001 -43.290207 16.674133 24.419835 66.048503 -4.524605 -2.560197 -37.454264 5.760696 -19.062735 -4.517632 -0.034132 0.072567 -0.000000 0.000000 0.000000 -82.598338 5.912983 -27.565636 49.493572 2.485059 2.195023 14.119597 -9.763107 8.018055 -0.264554 -0.187968 0.199213 -0.000000 0.000000 -0.000000 
73.883026 60.268738 -5.074940 53.417069 63.585380 -40.865175 7.697013 0.160362 1.395072 15.400799 -0.180773 2.615180 15.400793 -0.180772 2.615183 -11.102829 -0.616931 -2.107220 17.178318 -6.527512 -4.418712 -0.000000 0.000000 -0.000001 0.041678 -10.230324 -18.844777 -66.422224 -10.960751 -15.148328 -1.571503 -98.241213 -1.503235 -33.273874 -2.431946 0.675142 -13.322426 -11.156066 -5.688893 5.535829 13.225674 2.234684 -0.000005 -0.000006 -0.000004 -0.000001 0.000001 0.000003 4.051942 15.579588 -13.578659 -4.095853 12.713264 -76.553491 0.000004 -0.000007 0.000009 -0.000001 -0.000004 0.000001 3.726896 8.013464 -18.319650 -10.686589 7.974972 -68.501736 -0.000004 -0.000006 0.000006 0.000001 0.000001 0.000001 1.321140 3.358435 -21.695360 -13.102324 6.341352 -69.933337 -0.000006 -0.000008 0.000003 0.000000 -0.000001 -0.000002 -2.638062 0.790690 -18.032055 -4.233808 -9.043467 -68.305457 0.000004 0.000005 -0.000004 -0.000001 -0.000001 0.000000 -1.226986 20.420645 21.673107 -23.311506 67.050908 16.667576 -0.728256 104.537357 0.840348 14.715100 21.982679 -32.439898 -13.266620 -6.430516 -7.934197 12.525976 -26.571495 -1.146475 0.000007 -0.000005 0.000004 -0.000000 0.000003 -0.000000 2.897036 -20.355798 57.558161 1.247117 -2.368025 62.391784 -0.000003 0.000002 0.000002 0.000003 0.000000 0.000000 -0.389539 -9.857841 61.656985 -1.569749 2.441940 55.999027 0.000007 0.000005 0.000005 -0.000001 -0.000002 0.000002 -2.117320 -3.079312 65.119433 -0.879092 3.669068 30.991331 -0.000001 -0.000008 -0.000003 0.000003 0.000000 -0.000000 -3.814466 5.496378 58.243489 -1.032663 7.313814 26.432754 -0.000002 0.000000 0.000001 0.000000 0.000001 0.000002 -43.230904 16.895141 24.001664 66.373729 -4.509980 -2.568533 -37.585766 5.935548 -18.546101 -4.522752 -0.034112 0.072580 0.000000 -0.000000 -0.000000 -82.014384 5.834169 -27.632493 47.760931 2.414146 2.196660 15.477212 -9.489600 8.108465 -0.264621 -0.188025 0.199249 0.000000 -0.000001 -0.000000 
73.690971 60.384224 -5.450857 52.626686 63.556065 -39.998971 7.684618 0.155809 1.388760 15.375869 -0.178076 2.605100 15.375871 -0.178059 2.605093 -11.177460 -0.539402 -2.115467 17.145769 -6.234209 -4.849815 0.000000 0.000000 -0.000000 0.009031 -10.285437 -19.312310 -66.528590 -11.524823 -15.847485 -1.596861 -97.984794 -1.530554 -32.604161 -2.000360 1.041842 -13.322428 -11.156052 -5.688886 5.535844 13.225666 2.234670 -0.000001 -0.000004 -0.000013 0.000001 0.000003 0.000003 4.051931 15.579597 -13.578663 -4.095834 12.713221 -76.553416 0.000003 0.000001 0.000008 -0.000001 0.000001 0.000001 3.726899 8.013465 -18.319665 -10.686583 7.974972 -68.501682 -0.000002 -0.000009 0.000009 -0.000001 -0.000001 0.000001 1.321154 3.358427 -21.695355 -13.102315 6.341365 -69.933364 -0.000006 -0.000008 0.000001 -0.000000 -0.000000 -0.000000 -2.638075 0.790691 -18.032049 -4.233793 -9.043462 -68.305457 0.000003 0.000007 -0.000005 -0.000002 -0.000002 0.000002 -1.234327 20.360700 21.764874 -23.929669 66.745421 16.543977 -0.756316 104.215846 0.865725 13.276464 22.459933 -31.518140 -13.266623 -6.430510 -7.934183 12.525999 -26.571485 -1.146458 0.000009 -0.000008 0.000003 -0.000001 0.000006 0.000001 2.897039 -20.355791 57.558182 1.247127 -2.368004 62.391756 0.000003 0.000000 0.000005 -0.000000 -0.000001 0.000002 -0.389538 -9.857817 61.656999 -1.569766 2.441946 55.999020 0.000012 0.000002 0.000003 0.000002 -0.000002 0.000002 -2.117325 -3.079298 65.119454 -0.879081 3.669048 30.991321 -0.000003 -0.000008 -0.000004 -0.000002 0.000001 0.000000 -3.814476 5.496383 58.243482 -1.032644 7.313802 26.432767 -0.000003 -0.000000 0.000002 -0.000001 -0.000000 0.000000 -43.130056 17.113374 23.584367 66.589625 -4.481474 -2.573381 -37.669180 6.143398 -18.087613 -4.532823 -0.034027 0.072607 -0.000000 0.000001 -0.000000 -81.470735 5.740321 -27.669911 46.093484 2.352047 2.203023 16.748881 -9.227250 8.159125 -0.264656 -0.188052 0.199276 -0.000000 0.000001 -0.000000 
